<svg viewBox="0 0 24 24" xmlns="http://www.w3.org/2000/svg">
	<g fill="white">
		<path
			d="m12 1a9.957 9.957 0 0 0 -10 9.889 9.791 9.791 0 0 0 3.375 7.4v1.487a3.24 3.24 0 0 0 3.25 3.224h6.75a3.24 3.24 0 0 0 3.25-3.223v-1.487a9.791 9.791 0 0 0 3.375-7.401 9.957 9.957 0 0 0 -10-9.889zm5 16.037a1 1 0 0 0 -.379.784v1.956a1.239 1.239 0 0 1 -1.246 1.223h-.375v-3a1 1 0 0 0 -2 0v3h-2v-3a1 1 0 0 0 -2 0v3h-.375a1.239 1.239 0 0 1 -1.25-1.223v-1.956a1 1 0 0 0 -.375-.784 7.813 7.813 0 0 1 -3-6.148 8 8 0 0 1 16 0 7.813 7.813 0 0 1 -3 6.148z" />
		<circle cx="9" cy="13" r="2" />
		<circle cx="15" cy="13" r="2" />
	</g>
</svg>